REM DIRINDEX 1\2,1\3
REM DIRNAME cjc132,folder01,folder02
TITLE ""
FILE "40.mp3" MP3
  TRACK 01 AUDIO
    TITLE "0:"
    INDEX 01 00:00:00
  TRACK 02 AUDIO
    TITLE "3:cjc132_0752"
    INDEX 01 00:00:11
  TRACK 03 AUDIO
    TITLE "0:"
    INDEX 01 00:01:38
  TRACK 04 AUDIO
    TITLE "2:cjc132_0753"
    INDEX 01 00:02:14
  TRACK 05 AUDIO
    TITLE "0:"
    INDEX 01 00:03:27
  TRACK 06 AUDIO
    TITLE "2:cjc132_0754"
    INDEX 01 00:04:01
  TRACK 07 AUDIO
    TITLE "0:"
    INDEX 01 00:07:15
  TRACK 08 AUDIO
    TITLE "2:cjc132_0755"
    INDEX 01 00:07:66
  TRACK 09 AUDIO
    TITLE "0:"
    INDEX 01 00:09:10
  TRACK 10 AUDIO
    TITLE "2:cjc132_0756"
    INDEX 01 00:09:59
  TRACK 11 AUDIO
    TITLE "0:"
    INDEX 01 00:10:63
  TRACK 12 AUDIO
    TITLE "2:cjc132_0757"
    INDEX 01 00:11:39
  TRACK 13 AUDIO
    TITLE "0:"
    INDEX 01 00:12:58
  TRACK 14 AUDIO
    TITLE "2:cjc132_0758"
    INDEX 01 00:13:33
  TRACK 15 AUDIO
    TITLE "0:"
    INDEX 01 00:14:62
  TRACK 16 AUDIO
    TITLE "2:cjc132_0759"
    INDEX 01 00:15:36
  TRACK 17 AUDIO
    TITLE "0:"
    INDEX 01 00:16:57
  TRACK 18 AUDIO
    TITLE "2:cjc132_0760"
    INDEX 01 00:17:29
  TRACK 19 AUDIO
    TITLE "0:"
    INDEX 01 00:19:07
  TRACK 20 AUDIO
    TITLE "2:cjc132_0761"
    INDEX 01 00:19:52
  TRACK 21 AUDIO
    TITLE "0:"
    INDEX 01 00:21:06
  TRACK 22 AUDIO
    TITLE "2:cjc132_0762"
    INDEX 01 00:22:17
  TRACK 23 AUDIO
    TITLE "0:"
    INDEX 01 00:24:12
  TRACK 24 AUDIO
    TITLE "2:cjc132_0763"
    INDEX 01 00:26:34
  TRACK 25 AUDIO
    TITLE "0:"
    INDEX 01 00:28:29
  TRACK 26 AUDIO
    TITLE "2:cjc132_0764"
    INDEX 01 00:30:42
  TRACK 27 AUDIO
    TITLE "0:"
    INDEX 01 00:32:13
  TRACK 28 AUDIO
    TITLE "2:cjc132_0765"
    INDEX 01 00:34:06
  TRACK 29 AUDIO
    TITLE "0:"
    INDEX 01 00:35:72
  TRACK 30 AUDIO
    TITLE "2:cjc132_0766"
    INDEX 01 00:38:12
  TRACK 31 AUDIO
    TITLE "0:"
    INDEX 01 00:39:56
  TRACK 32 AUDIO
    TITLE "2:cjc132_0767"
    INDEX 01 00:41:44
  TRACK 33 AUDIO
    TITLE "0:"
    INDEX 01 00:43:13
  TRACK 34 AUDIO
    TITLE "2:cjc132_0768"
    INDEX 01 00:45:04
  TRACK 35 AUDIO
    TITLE "0:"
    INDEX 01 00:46:66
  TRACK 36 AUDIO
    TITLE "2:cjc132_0769"
    INDEX 01 00:49:02
  TRACK 37 AUDIO
    TITLE "0:"
    INDEX 01 00:50:64
  TRACK 38 AUDIO
    TITLE "2:cjc132_0770"
    INDEX 01 00:52:69
  TRACK 39 AUDIO
    TITLE "0:"
    INDEX 01 00:54:15
  TRACK 40 AUDIO
    TITLE "2:cjc132_0771"
    INDEX 01 00:55:57
  TRACK 41 AUDIO
    TITLE "0:"
    INDEX 01 00:57:23
  TRACK 42 AUDIO
    TITLE "2:cjc132_0772"
    INDEX 01 00:59:16
  TRACK 43 AUDIO
    TITLE "0:"
    INDEX 01 01:00:43
  TRACK 44 AUDIO
    TITLE "2:cjc132_0773"
    INDEX 01 01:02:20
  TRACK 45 AUDIO
    TITLE "0:"
    INDEX 01 01:03:49
  TRACK 46 AUDIO
    TITLE "2:cjc132_0774"
    INDEX 01 01:05:24
  TRACK 47 AUDIO
    TITLE "0:"
    INDEX 01 01:07:06
  TRACK 48 AUDIO
    TITLE "2:cjc132_0775"
    INDEX 01 01:09:07
  TRACK 49 AUDIO
    TITLE "0:"
    INDEX 01 01:10:45
  TRACK 50 AUDIO
    TITLE "2:cjc132_0776"
    INDEX 01 01:12:30
  TRACK 51 AUDIO
    TITLE "0:"
    INDEX 01 01:13:71
  TRACK 52 AUDIO
    TITLE "2:cjc132_0777"
    INDEX 01 01:15:64
  TRACK 53 AUDIO
    TITLE "0:"
    INDEX 01 01:17:41
  TRACK 54 AUDIO
    TITLE "2:cjc132_0778"
    INDEX 01 01:19:38
  TRACK 55 AUDIO
    TITLE "0:"
    INDEX 01 01:21:12
  TRACK 56 AUDIO
    TITLE "2:cjc132_0779"
    INDEX 01 01:23:09
  TRACK 57 AUDIO
    TITLE "0:"
    INDEX 01 01:25:25
  TRACK 58 AUDIO
    TITLE "2:cjc132_0780"
    INDEX 01 01:27:61
  TRACK 59 AUDIO
    TITLE "0:"
    INDEX 01 01:29:43
  TRACK 60 AUDIO
    TITLE "2:cjc132_0781"
    INDEX 01 01:31:45
  TRACK 61 AUDIO
    TITLE "0:"
    INDEX 01 01:33:21
  TRACK 62 AUDIO
    TITLE "2:cjc132_0782"
    INDEX 01 01:35:24
  TRACK 63 AUDIO
    TITLE "0:"
    INDEX 01 01:37:01
  TRACK 64 AUDIO
    TITLE "2:cjc132_0783"
    INDEX 01 01:39:04
  TRACK 65 AUDIO
    TITLE "0:"
    INDEX 01 01:40:72
  TRACK 66 AUDIO
    TITLE "2:cjc132_0784"
    INDEX 01 01:43:15
  TRACK 67 AUDIO
    TITLE "0:"
    INDEX 01 01:45:28
  TRACK 68 AUDIO
    TITLE "2:cjc132_0785"
    INDEX 01 01:47:64
  TRACK 69 AUDIO
    TITLE "0:"
    INDEX 01 01:49:39
